<?xml version="1.0" encoding="UTF-8"?>
<svg id="Layer_2" data-name="Layer 2" xmlns="http://www.w3.org/2000/svg" viewBox="0 0 311.35 204.48">
  <g id="Layer_1-2" data-name="Layer 1">
    <polygon points="0 204.48 42.15 171.41 42.15 204.48 0 204.48"/>
    <path d="M42.15,114.77l11.21-3.09,34.03-72.55s.89-3.57,2.32,0l62.55,135.48s12.9,29.17-17.7,29.88h82.7s-25.54-9.15-30.6-22.55L102.19.1h-6.07l-53.97,114.67Z"/>
    <path d="M138.03,0v5.9S174.19.09,179.36,46.87l1.48,9.87,1.66-10.52s1.57-44.29,40.96-40.41V0h-85.44Z"/>
    <path d="M241.59,204.48s42.48,1.49,64.62-55.97h5.14l-17.22,55.97h-52.55Z"/>
  </g>
</svg>